<?xml version="1.0" encoding="UTF-8"?>
<svg xmlns="http://www.w3.org/2000/svg" xmlns:xlink="http://www.w3.org/1999/xlink" width="180px" height="102px" viewBox="0 0 180 102" version="1.1">
<g id="surface1">
<path style=" stroke:none;fill-rule:nonzero;fill:rgb(99.607843%,99.607843%,99.215686%);fill-opacity:1;" d="M 0.644531 0 C 59.621094 0 118.59375 0 179.355469 0 C 179.355469 33.660156 179.355469 67.320312 179.355469 102 C 120.378906 102 61.40625 102 0.644531 102 C 0.644531 68.339844 0.644531 34.679688 0.644531 0 Z M 0.644531 0 "/>
<path style=" stroke:none;fill-rule:nonzero;fill:rgb(93.72549%,75.686275%,9.019608%);fill-opacity:1;" d="M 116.632812 31.082031 C 117.363281 31.078125 117.363281 31.078125 118.101562 31.078125 C 119.691406 31.066406 121.289062 31.082031 122.882812 31.097656 C 123.996094 31.101562 125.105469 31.101562 126.214844 31.097656 C 128.546875 31.097656 130.875 31.113281 133.207031 31.132812 C 135.890625 31.152344 138.570312 31.160156 141.253906 31.160156 C 143.847656 31.152344 146.441406 31.160156 149.03125 31.175781 C 150.128906 31.179688 151.226562 31.179688 152.320312 31.179688 C 153.863281 31.179688 155.402344 31.195312 156.9375 31.210938 C 157.390625 31.210938 157.835938 31.210938 158.296875 31.203125 C 163.59375 31.289062 167.320312 33.203125 171.171875 36.710938 C 175.300781 41.296875 176.804688 45.519531 176.558594 51.691406 C 176.214844 56.695312 173.988281 60.816406 170.367188 64.234375 C 166.222656 67.628906 161.019531 69.191406 155.695312 68.847656 C 155.28125 68.707031 154.863281 68.570312 154.429688 68.425781 C 153.859375 68.390625 153.28125 68.375 152.707031 68.378906 C 152.355469 68.378906 152.003906 68.378906 151.644531 68.378906 C 151.261719 68.378906 150.878906 68.386719 150.488281 68.386719 C 149.648438 68.386719 148.8125 68.386719 147.972656 68.390625 C 147.53125 68.390625 147.082031 68.390625 146.625 68.390625 C 144.277344 68.394531 141.925781 68.390625 139.574219 68.378906 C 136.582031 68.375 133.589844 68.371094 130.59375 68.386719 C 128.179688 68.390625 125.757812 68.386719 123.34375 68.375 C 122.417969 68.371094 121.5 68.375 120.582031 68.378906 C 119.289062 68.390625 118 68.378906 116.707031 68.371094 C 116.332031 68.375 115.949219 68.386719 115.558594 68.390625 C 114.027344 68.359375 113.011719 68.328125 111.785156 67.339844 C 110.070312 65.398438 110.070312 65.398438 110.070312 64.171875 C 110.34375 64.171875 110.625 64.171875 110.914062 64.171875 C 111.140625 64.59375 111.359375 65.003906 111.589844 65.429688 C 112.5 66.886719 112.5 66.886719 114.1875 67.035156 C 114.835938 67.039062 115.484375 67.035156 116.132812 67.011719 C 116.488281 67.011719 116.839844 67.011719 117.207031 67.011719 C 118.375 67.011719 119.546875 66.992188 120.714844 66.972656 C 121.53125 66.96875 122.339844 66.96875 123.152344 66.960938 C 125.292969 66.953125 127.425781 66.925781 129.5625 66.902344 C 131.746094 66.871094 133.925781 66.863281 136.105469 66.851562 C 140.382812 66.820312 144.65625 66.78125 148.9375 66.726562 C 148.5 66.378906 148.5 66.378906 148.058594 66.023438 C 147.675781 65.722656 147.292969 65.417969 146.902344 65.105469 C 146.527344 64.804688 146.148438 64.5 145.761719 64.195312 C 144.714844 63.328125 144.714844 63.328125 144.15625 62.585938 C 142.945312 61.671875 141.503906 61.894531 140.050781 61.917969 C 139.707031 61.917969 139.359375 61.925781 139.003906 61.925781 C 138.253906 61.925781 137.5 61.933594 136.753906 61.9375 C 135.5625 61.953125 134.371094 61.953125 133.183594 61.953125 C 129.796875 61.949219 126.410156 61.960938 123.03125 61.996094 C 120.960938 62.011719 118.894531 62.015625 116.820312 62.003906 C 116.035156 62.003906 115.246094 62.011719 114.457031 62.023438 C 108.3125 62.121094 108.3125 62.121094 106.378906 60.886719 C 105.171875 59.570312 104.574219 58.761719 104.574219 56.953125 C 116.425781 56.953125 128.28125 56.953125 140.488281 56.953125 C 140.347656 56.527344 140.207031 56.109375 140.066406 55.675781 C 139.59375 55.671875 139.128906 55.671875 138.644531 55.664062 C 134.238281 55.644531 129.832031 55.609375 125.421875 55.574219 C 123.15625 55.554688 120.890625 55.539062 118.621094 55.527344 C 116.4375 55.519531 114.253906 55.5 112.066406 55.480469 C 111.230469 55.46875 110.394531 55.46875 109.5625 55.464844 C 108.390625 55.457031 107.226562 55.449219 106.0625 55.433594 C 105.710938 55.433594 105.363281 55.433594 105.007812 55.433594 C 102.625 55.398438 102.625 55.398438 101.730469 54.601562 C 101.554688 54.394531 101.375 54.1875 101.195312 53.976562 C 101.335938 53.691406 101.476562 53.414062 101.617188 53.125 C 101.898438 53.40625 102.175781 53.6875 102.464844 53.976562 C 103.644531 54.066406 104.789062 54.105469 105.972656 54.113281 C 106.519531 54.117188 106.519531 54.117188 107.070312 54.121094 C 108.277344 54.136719 109.476562 54.140625 110.675781 54.152344 C 111.511719 54.15625 112.34375 54.167969 113.179688 54.175781 C 115.367188 54.199219 117.5625 54.210938 119.757812 54.234375 C 121.992188 54.246094 124.230469 54.269531 126.46875 54.289062 C 130.863281 54.332031 135.25 54.367188 139.640625 54.398438 C 139.574219 54.121094 139.503906 53.839844 139.429688 53.550781 C 139.167969 51.964844 139.195312 50.480469 139.21875 48.875 C 138.691406 48.875 138.164062 48.882812 137.621094 48.882812 C 132.660156 48.90625 127.699219 48.925781 122.742188 48.941406 C 120.1875 48.949219 117.636719 48.957031 115.085938 48.972656 C 112.625 48.984375 110.164062 48.992188 107.703125 48.996094 C 106.765625 48.996094 105.824219 49.003906 104.886719 49.007812 C 103.570312 49.019531 102.257812 49.019531 100.945312 49.019531 C 100.355469 49.027344 100.355469 49.027344 99.757812 49.03125 C 99.402344 49.03125 99.046875 49.027344 98.679688 49.027344 C 98.210938 49.027344 98.210938 49.027344 97.734375 49.03125 C 96.972656 48.875 96.972656 48.875 96.128906 47.601562 C 96.128906 45.902344 96.128906 45.902344 96.925781 44.957031 C 98.765625 43.898438 100.277344 43.972656 102.355469 44.003906 C 102.976562 44.003906 102.976562 44.003906 103.605469 44.003906 C 104.964844 44.007812 106.328125 44.019531 107.6875 44.035156 C 108.632812 44.035156 109.578125 44.039062 110.519531 44.039062 C 113.003906 44.050781 115.484375 44.066406 117.96875 44.085938 C 120.503906 44.101562 123.035156 44.109375 125.574219 44.117188 C 130.546875 44.136719 135.515625 44.167969 140.488281 44.203125 C 140.488281 43.640625 140.488281 43.078125 140.488281 42.5 C 127.523438 42.5 114.554688 42.5 101.195312 42.5 C 103.785156 38.152344 103.785156 38.152344 105.84375 37.59375 C 106.855469 37.5 107.828125 37.492188 108.839844 37.507812 C 109.21875 37.507812 109.597656 37.503906 109.988281 37.5 C 111.230469 37.492188 112.476562 37.503906 113.71875 37.511719 C 114.585938 37.507812 115.453125 37.507812 116.316406 37.503906 C 118.59375 37.488281 120.867188 37.492188 123.140625 37.503906 C 126.789062 37.511719 130.433594 37.5 134.085938 37.488281 C 135.363281 37.488281 136.636719 37.488281 137.914062 37.492188 C 138.6875 37.492188 139.464844 37.492188 140.242188 37.492188 C 140.601562 37.5 140.957031 37.503906 141.324219 37.503906 C 143.214844 37.578125 143.214844 37.578125 144.714844 36.550781 C 132.726562 36.410156 120.730469 36.269531 108.375 36.125 C 109.480469 31.695312 112.519531 31.011719 116.632812 31.082031 Z M 116.632812 31.082031 "/>
<path style=" stroke:none;fill-rule:nonzero;fill:rgb(79.215686%,65.098039%,28.627451%);fill-opacity:1;" d="M 167.640625 33.757812 C 171.820312 36.765625 175.324219 40.742188 176.398438 45.902344 C 177.078125 52.074219 176.113281 57.277344 172.265625 62.273438 C 168.640625 66.363281 163.789062 68.492188 158.375 68.945312 C 156.957031 68.960938 155.777344 68.878906 154.429688 68.425781 C 153.859375 68.390625 153.28125 68.375 152.707031 68.378906 C 152.355469 68.378906 152.003906 68.378906 151.644531 68.378906 C 151.261719 68.378906 150.878906 68.386719 150.488281 68.386719 C 149.648438 68.386719 148.8125 68.386719 147.972656 68.390625 C 147.53125 68.390625 147.082031 68.390625 146.625 68.390625 C 144.277344 68.394531 141.925781 68.390625 139.574219 68.378906 C 136.582031 68.375 133.589844 68.371094 130.59375 68.386719 C 128.179688 68.390625 125.757812 68.386719 123.34375 68.375 C 122.417969 68.371094 121.5 68.375 120.582031 68.378906 C 119.289062 68.390625 118 68.378906 116.707031 68.371094 C 116.332031 68.375 115.949219 68.386719 115.558594 68.390625 C 114.027344 68.359375 113.011719 68.328125 111.785156 67.339844 C 110.070312 65.398438 110.070312 65.398438 110.070312 64.171875 C 110.34375 64.171875 110.625 64.171875 110.914062 64.171875 C 111.140625 64.59375 111.359375 65.003906 111.589844 65.429688 C 112.5 66.886719 112.5 66.886719 114.1875 67.035156 C 114.835938 67.039062 115.484375 67.035156 116.132812 67.011719 C 116.488281 67.011719 116.839844 67.011719 117.207031 67.011719 C 118.375 67.011719 119.546875 66.992188 120.714844 66.972656 C 121.53125 66.96875 122.339844 66.96875 123.152344 66.960938 C 125.292969 66.953125 127.425781 66.925781 129.5625 66.902344 C 131.746094 66.871094 133.925781 66.863281 136.105469 66.851562 C 140.382812 66.820312 144.65625 66.78125 148.9375 66.726562 C 148.5 66.378906 148.5 66.378906 148.058594 66.023438 C 147.675781 65.722656 147.292969 65.417969 146.902344 65.105469 C 146.527344 64.804688 146.148438 64.5 145.761719 64.195312 C 144.714844 63.328125 144.714844 63.328125 144.15625 62.585938 C 142.945312 61.671875 141.503906 61.894531 140.050781 61.917969 C 139.707031 61.917969 139.359375 61.925781 139.003906 61.925781 C 138.253906 61.925781 137.5 61.933594 136.753906 61.9375 C 135.5625 61.953125 134.371094 61.953125 133.183594 61.953125 C 129.796875 61.949219 126.410156 61.960938 123.03125 61.996094 C 120.960938 62.011719 118.894531 62.015625 116.820312 62.003906 C 116.035156 62.003906 115.246094 62.011719 114.457031 62.023438 C 108.3125 62.121094 108.3125 62.121094 106.378906 60.886719 C 105.171875 59.570312 104.574219 58.761719 104.574219 56.953125 C 116.425781 56.953125 128.28125 56.953125 140.488281 56.953125 C 140.347656 56.527344 140.207031 56.109375 140.066406 55.675781 C 139.59375 55.671875 139.128906 55.671875 138.644531 55.664062 C 134.238281 55.644531 129.832031 55.609375 125.421875 55.574219 C 123.15625 55.554688 120.890625 55.539062 118.621094 55.527344 C 116.4375 55.519531 114.253906 55.5 112.066406 55.480469 C 111.230469 55.46875 110.394531 55.46875 109.5625 55.464844 C 108.390625 55.457031 107.226562 55.449219 106.0625 55.433594 C 105.710938 55.433594 105.363281 55.433594 105.007812 55.433594 C 102.625 55.398438 102.625 55.398438 101.730469 54.601562 C 101.554688 54.394531 101.375 54.1875 101.195312 53.976562 C 101.335938 53.691406 101.476562 53.414062 101.617188 53.125 C 101.898438 53.40625 102.175781 53.6875 102.464844 53.976562 C 103.644531 54.066406 104.789062 54.105469 105.972656 54.113281 C 106.519531 54.117188 106.519531 54.117188 107.070312 54.121094 C 108.277344 54.136719 109.476562 54.140625 110.675781 54.152344 C 111.511719 54.15625 112.34375 54.167969 113.179688 54.175781 C 115.367188 54.199219 117.5625 54.210938 119.757812 54.234375 C 121.992188 54.246094 124.230469 54.269531 126.46875 54.289062 C 130.863281 54.332031 135.25 54.367188 139.640625 54.398438 C 139.574219 54.121094 139.503906 53.839844 139.429688 53.550781 C 139.167969 51.964844 139.195312 50.480469 139.21875 48.875 C 138.691406 48.875 138.164062 48.882812 137.621094 48.882812 C 132.660156 48.90625 127.699219 48.925781 122.742188 48.941406 C 120.1875 48.949219 117.636719 48.957031 115.085938 48.972656 C 112.625 48.984375 110.164062 48.992188 107.703125 48.996094 C 106.765625 48.996094 105.824219 49.003906 104.886719 49.007812 C 103.570312 49.019531 102.257812 49.019531 100.945312 49.019531 C 100.355469 49.027344 100.355469 49.027344 99.757812 49.03125 C 99.402344 49.03125 99.046875 49.027344 98.679688 49.027344 C 98.210938 49.027344 98.210938 49.027344 97.734375 49.03125 C 96.972656 48.875 96.972656 48.875 96.128906 47.601562 C 96.128906 45.902344 96.128906 45.902344 96.925781 44.957031 C 98.765625 43.898438 100.277344 43.972656 102.355469 44.003906 C 102.976562 44.003906 102.976562 44.003906 103.605469 44.003906 C 104.964844 44.007812 106.328125 44.019531 107.6875 44.035156 C 108.632812 44.035156 109.578125 44.039062 110.519531 44.039062 C 113.003906 44.050781 115.484375 44.066406 117.96875 44.085938 C 120.503906 44.101562 123.035156 44.109375 125.574219 44.117188 C 130.546875 44.136719 135.515625 44.167969 140.488281 44.203125 C 140.488281 43.640625 140.488281 43.078125 140.488281 42.5 C 127.523438 42.5 114.554688 42.5 101.195312 42.5 C 103.785156 38.152344 103.785156 38.152344 105.84375 37.59375 C 106.855469 37.5 107.828125 37.492188 108.839844 37.507812 C 109.21875 37.507812 109.597656 37.503906 109.988281 37.5 C 111.230469 37.492188 112.476562 37.503906 113.71875 37.511719 C 114.585938 37.507812 115.453125 37.507812 116.316406 37.503906 C 118.59375 37.488281 120.867188 37.492188 123.140625 37.503906 C 126.789062 37.511719 130.433594 37.5 134.085938 37.488281 C 135.363281 37.488281 136.636719 37.488281 137.914062 37.492188 C 138.6875 37.492188 139.464844 37.492188 140.242188 37.492188 C 140.601562 37.5 140.957031 37.503906 141.324219 37.503906 C 143.214844 37.578125 143.214844 37.578125 144.714844 36.550781 C 132.726562 36.410156 120.730469 36.269531 108.375 36.125 C 108.375 35.84375 108.375 35.5625 108.375 35.273438 C 108.855469 35.273438 109.332031 35.273438 109.824219 35.269531 C 114.316406 35.253906 118.8125 35.230469 123.308594 35.199219 C 125.617188 35.179688 127.929688 35.167969 130.238281 35.160156 C 132.46875 35.152344 134.699219 35.136719 136.929688 35.117188 C 137.78125 35.113281 138.632812 35.109375 139.480469 35.109375 C 140.675781 35.109375 141.867188 35.097656 143.054688 35.082031 C 143.40625 35.082031 143.757812 35.085938 144.121094 35.085938 C 146.300781 35.046875 147.292969 34.695312 148.9375 33.152344 C 149.917969 33.257812 149.917969 33.257812 150.628906 33.574219 C 150.226562 33.832031 150.226562 33.832031 149.820312 34.089844 C 145.863281 36.738281 142.113281 40.066406 141.085938 44.9375 C 140.390625 50.394531 140.53125 55.820312 143.765625 60.480469 C 146.296875 63.570312 149.53125 66.558594 153.585938 67.148438 C 159.941406 67.578125 164.957031 67.289062 169.96875 62.953125 C 173.414062 59.632812 175.160156 55.953125 175.308594 51.132812 C 175.34375 45.746094 174.363281 41.390625 170.519531 37.40625 C 166.875 34.074219 162.527344 31.996094 157.480469 32.199219 C 155.324219 32.429688 153.1875 32.78125 151.050781 33.152344 C 151.472656 32.296875 151.472656 32.296875 152.75 31.828125 C 157.675781 30.542969 163.320312 31.023438 167.640625 33.757812 Z M 167.640625 33.757812 "/>
<path style=" stroke:none;fill-rule:nonzero;fill:rgb(94.117647%,77.254902%,14.117647%);fill-opacity:1;" d="M 112.53125 31.34375 C 112.996094 31.34375 112.996094 31.34375 113.480469 31.34375 C 114.023438 31.34375 114.023438 31.34375 114.570312 31.34375 C 114.964844 31.34375 115.363281 31.351562 115.769531 31.355469 C 116.1875 31.355469 116.601562 31.355469 117.035156 31.355469 C 118.417969 31.355469 119.792969 31.359375 121.171875 31.367188 C 122.132812 31.371094 123.085938 31.371094 124.042969 31.371094 C 126.5625 31.375 129.078125 31.378906 131.59375 31.390625 C 134.167969 31.402344 136.734375 31.40625 139.304688 31.410156 C 144.347656 31.417969 149.390625 31.429688 154.429688 31.453125 C 153.875 31.730469 153.316406 32.011719 152.738281 32.296875 C 153.996094 32.339844 153.996094 32.339844 155.144531 32.085938 C 160.035156 31.34375 164.457031 32.417969 168.539062 35.242188 C 172.316406 38.269531 174.5 41.605469 175.554688 46.324219 C 175.90625 52.210938 175.535156 56.871094 171.753906 61.625 C 171.472656 61.484375 171.195312 61.34375 170.910156 61.199219 C 171.515625 59.589844 172.242188 58.0625 173.019531 56.523438 C 173.300781 56.523438 173.578125 56.523438 173.863281 56.523438 C 175.335938 50.988281 175.082031 46.101562 172.226562 41.09375 C 169.949219 37.507812 166.546875 34.824219 162.457031 33.574219 C 157.136719 33.015625 152.195312 33.332031 147.644531 36.339844 C 146.519531 37.296875 146.097656 37.785156 145.558594 39.101562 C 145.140625 39.378906 144.722656 39.664062 144.292969 39.949219 C 143.875 39.53125 143.875 39.53125 143.449219 39.101562 C 145.542969 36.863281 147.445312 34.9375 150.207031 33.574219 C 149.171875 33.761719 148.617188 33.90625 147.84375 34.648438 C 146.332031 35.582031 144.828125 35.441406 143.105469 35.421875 C 142.730469 35.421875 142.351562 35.421875 141.964844 35.421875 C 140.726562 35.421875 139.488281 35.410156 138.25 35.402344 C 137.390625 35.394531 136.53125 35.394531 135.671875 35.394531 C 133.40625 35.390625 131.148438 35.375 128.886719 35.359375 C 126.578125 35.351562 124.273438 35.34375 121.960938 35.335938 C 117.4375 35.324219 112.90625 35.300781 108.375 35.273438 C 108.785156 34.796875 109.191406 34.316406 109.59375 33.84375 C 109.816406 33.574219 110.042969 33.308594 110.273438 33.035156 C 111.636719 31.464844 111.636719 31.464844 112.53125 31.34375 Z M 112.53125 31.34375 "/>
<path style=" stroke:none;fill-rule:nonzero;fill:rgb(95.686275%,83.921569%,55.294118%);fill-opacity:1;" d="M 102.320312 44.003906 C 102.933594 44.003906 102.933594 44.003906 103.554688 44.003906 C 104.902344 44.007812 106.246094 44.019531 107.59375 44.035156 C 108.527344 44.035156 109.460938 44.039062 110.402344 44.039062 C 112.855469 44.050781 115.3125 44.066406 117.773438 44.085938 C 120.28125 44.101562 122.789062 44.109375 125.300781 44.117188 C 130.222656 44.136719 135.144531 44.167969 140.066406 44.203125 C 139.925781 45.460938 139.785156 46.722656 139.640625 48.023438 C 118.3125 48.234375 118.3125 48.234375 96.550781 48.449219 C 96.410156 47.609375 96.269531 46.769531 96.128906 45.902344 C 98.054688 43.882812 99.703125 43.964844 102.320312 44.003906 Z M 102.320312 44.003906 "/>
<path style=" stroke:none;fill-rule:nonzero;fill:rgb(94.509804%,82.745098%,54.117647%);fill-opacity:1;" d="M 140.488281 56.523438 C 140.90625 57.363281 140.90625 57.363281 141.332031 58.226562 C 141.558594 58.59375 141.785156 58.964844 142.019531 59.34375 C 142.597656 60.351562 142.597656 60.351562 142.597656 61.199219 C 138.078125 61.335938 133.558594 61.449219 129.039062 61.539062 C 126.9375 61.585938 124.839844 61.636719 122.742188 61.703125 C 120.710938 61.761719 118.683594 61.808594 116.660156 61.839844 C 115.886719 61.855469 115.113281 61.878906 114.339844 61.902344 C 108.3125 62.117188 108.3125 62.117188 106.382812 60.894531 C 105.183594 59.578125 104.574219 58.761719 104.574219 56.953125 C 116.425781 56.808594 128.28125 56.667969 140.488281 56.523438 Z M 140.488281 56.523438 "/>
<path style=" stroke:none;fill-rule:nonzero;fill:rgb(94.117647%,76.862745%,12.941176%);fill-opacity:1;" d="M 107.566406 37.71875 C 107.929688 37.71875 108.292969 37.726562 108.664062 37.730469 C 109.039062 37.730469 109.421875 37.730469 109.8125 37.730469 C 111.070312 37.730469 112.324219 37.734375 113.585938 37.742188 C 114.453125 37.746094 115.324219 37.746094 116.195312 37.746094 C 118.488281 37.75 120.78125 37.753906 123.078125 37.765625 C 125.414062 37.777344 127.753906 37.78125 130.09375 37.785156 C 134.683594 37.792969 139.273438 37.804688 143.871094 37.828125 C 143.371094 39.519531 142.722656 40.554688 141.332031 41.648438 C 138.476562 42.414062 135.328125 42.09375 132.398438 42.023438 C 131.507812 42.015625 130.625 42.011719 129.738281 42.007812 C 127.40625 41.992188 125.074219 41.957031 122.75 41.910156 C 120.371094 41.871094 117.988281 41.855469 115.613281 41.835938 C 110.949219 41.796875 106.28125 41.730469 101.617188 41.648438 C 102.023438 41.171875 102.429688 40.691406 102.832031 40.21875 C 103.058594 39.949219 103.285156 39.683594 103.515625 39.410156 C 104.867188 37.851562 105.503906 37.726562 107.566406 37.71875 Z M 107.566406 37.71875 "/>
<path style=" stroke:none;fill-rule:nonzero;fill:rgb(95.294118%,83.921569%,55.294118%);fill-opacity:1;" d="M 99.507812 50.578125 C 112.609375 50.578125 125.71875 50.578125 139.21875 50.578125 C 139.429688 52.46875 139.429688 52.46875 139.640625 54.398438 C 134.824219 54.417969 130.007812 54.433594 125.1875 54.445312 C 122.953125 54.449219 120.710938 54.453125 118.476562 54.464844 C 116.316406 54.476562 114.15625 54.480469 111.996094 54.480469 C 111.175781 54.480469 110.351562 54.484375 109.527344 54.488281 C 108.375 54.496094 107.222656 54.496094 106.066406 54.496094 C 105.554688 54.5 105.554688 54.5 105.03125 54.503906 C 102.109375 54.496094 102.109375 54.496094 100.773438 53.550781 C 99.777344 52.441406 99.507812 52.09375 99.507812 50.578125 Z M 99.507812 50.578125 "/>
<path style=" stroke:none;fill-rule:nonzero;fill:rgb(95.686275%,83.921569%,55.294118%);fill-opacity:1;" d="M 147.671875 65.449219 C 148.371094 66.023438 149.074219 66.589844 149.78125 67.148438 C 144.964844 67.199219 140.148438 67.234375 135.328125 67.261719 C 133.089844 67.269531 130.851562 67.285156 128.617188 67.3125 C 126.457031 67.332031 124.296875 67.347656 122.136719 67.351562 C 121.3125 67.355469 120.492188 67.359375 119.667969 67.375 C 118.511719 67.390625 117.363281 67.390625 116.207031 67.390625 C 115.695312 67.402344 115.695312 67.402344 115.171875 67.417969 C 113.496094 67.394531 112.769531 67.3125 111.53125 66.125 C 110.914062 65.027344 110.914062 65.027344 110.914062 64.171875 C 110.496094 64.316406 110.078125 64.457031 109.648438 64.601562 C 109.648438 64.179688 109.648438 63.761719 109.648438 63.328125 C 114.101562 63.210938 118.5625 63.109375 123.023438 63.027344 C 125.089844 62.988281 127.164062 62.941406 129.234375 62.886719 C 131.234375 62.835938 133.230469 62.796875 135.230469 62.765625 C 135.996094 62.75 136.757812 62.730469 137.515625 62.710938 C 144.917969 62.488281 144.917969 62.488281 147.671875 65.449219 Z M 147.671875 65.449219 "/>
<path style=" stroke:none;fill-rule:nonzero;fill:rgb(74.509804%,59.215686%,20.392157%);fill-opacity:1;" d="M 18.386719 44.203125 C 19.535156 44.15625 20.6875 44.109375 21.871094 44.066406 C 22.234375 44.050781 22.589844 44.03125 22.960938 44.007812 C 24.679688 43.972656 25.328125 43.972656 26.632812 45.195312 C 27.40625 46.59375 27.515625 47.292969 27.261719 48.875 C 26.492188 50.308594 26.492188 50.308594 25.570312 51.421875 C 25.152344 51.421875 24.734375 51.421875 24.304688 51.421875 C 25.117188 52.921875 25.886719 54.261719 26.945312 55.59375 C 27.683594 56.523438 27.683594 56.523438 27.683594 57.375 C 26.71875 57.308594 26.71875 57.308594 25.570312 56.953125 C 24.730469 55.796875 24.101562 54.585938 23.433594 53.324219 C 22.566406 51.972656 22.566406 51.972656 20.078125 51.851562 C 20.078125 53.671875 20.078125 55.5 20.078125 57.375 C 19.523438 57.375 18.964844 57.375 18.386719 57.375 C 18.386719 53.027344 18.386719 48.679688 18.386719 44.203125 Z M 18.386719 44.203125 "/>
<path style=" stroke:none;fill-rule:nonzero;fill:rgb(79.607843%,65.490196%,28.627451%);fill-opacity:1;" d="M 148.9375 33.152344 C 149.917969 33.257812 149.917969 33.257812 150.628906 33.574219 C 150.226562 33.832031 150.226562 33.832031 149.820312 34.089844 C 146.128906 36.554688 143.355469 39.363281 141.332031 43.347656 C 141.121094 42.929688 141.121094 42.929688 140.910156 42.5 C 127.804688 42.5 114.699219 42.5 101.195312 42.5 C 101.335938 42.21875 101.476562 41.9375 101.617188 41.648438 C 114.726562 41.648438 127.828125 41.648438 141.332031 41.648438 C 141.75 40.601562 141.75 40.601562 142.175781 39.527344 C 143.015625 38.542969 143.847656 37.558594 144.714844 36.550781 C 132.726562 36.410156 120.730469 36.269531 108.375 36.125 C 108.375 35.84375 108.375 35.5625 108.375 35.273438 C 108.855469 35.273438 109.332031 35.273438 109.824219 35.269531 C 114.316406 35.253906 118.8125 35.230469 123.308594 35.199219 C 125.617188 35.179688 127.929688 35.167969 130.238281 35.160156 C 132.46875 35.152344 134.699219 35.136719 136.929688 35.117188 C 137.78125 35.113281 138.632812 35.109375 139.480469 35.109375 C 140.675781 35.109375 141.867188 35.097656 143.054688 35.082031 C 143.40625 35.082031 143.757812 35.085938 144.121094 35.085938 C 146.300781 35.046875 147.292969 34.695312 148.9375 33.152344 Z M 148.9375 33.152344 "/>
<path style=" stroke:none;fill-rule:nonzero;fill:rgb(75.686275%,61.176471%,24.705882%);fill-opacity:1;" d="M 80.070312 43.347656 C 80.488281 43.347656 80.910156 43.347656 81.335938 43.347656 C 81.335938 47.980469 81.335938 52.609375 81.335938 57.375 C 75.425781 57.375 75.425781 57.375 74 56.601562 C 72.980469 54.597656 72.945312 52.78125 73.3125 50.578125 C 74.074219 49.300781 74.535156 48.683594 75.847656 48.023438 C 77.261719 48.101562 78.660156 48.285156 80.070312 48.449219 C 80.070312 46.769531 80.070312 45.082031 80.070312 43.347656 Z M 80.070312 43.347656 "/>
<path style=" stroke:none;fill-rule:nonzero;fill:rgb(74.117647%,58.431373%,19.607843%);fill-opacity:1;" d="M 5.710938 44.203125 C 6.859375 44.167969 8.015625 44.128906 9.195312 44.09375 C 9.558594 44.082031 9.917969 44.066406 10.285156 44.046875 C 11.847656 44.023438 12.652344 44.03125 13.957031 44.953125 C 14.726562 46.113281 14.820312 47.074219 14.753906 48.464844 C 14.488281 49.769531 13.832031 50.511719 12.898438 51.421875 C 11.269531 52.246094 9.175781 51.871094 7.402344 51.851562 C 7.402344 53.671875 7.402344 55.5 7.402344 57.375 C 6.84375 57.375 6.289062 57.375 5.710938 57.375 C 5.710938 53.027344 5.710938 48.679688 5.710938 44.203125 Z M 5.710938 44.203125 "/>
<path style=" stroke:none;fill-rule:nonzero;fill:rgb(72.941176%,56.078431%,12.941176%);fill-opacity:1;" d="M 158.152344 32.910156 C 158.707031 32.914062 158.707031 32.914062 159.273438 32.914062 C 162.503906 33.003906 164.84375 33.878906 167.53125 35.699219 C 167.8125 35.859375 168.09375 36.015625 168.382812 36.175781 C 171.59375 38.105469 173.480469 42.039062 174.710938 45.476562 C 175.609375 49.285156 175.382812 52.925781 173.863281 56.523438 C 173.351562 54.933594 173.445312 53.457031 173.496094 51.796875 C 173.535156 49.113281 173.300781 46.667969 172.175781 44.203125 C 171.894531 43.917969 171.617188 43.640625 171.332031 43.347656 C 171.214844 43.027344 171.101562 42.703125 170.980469 42.367188 C 169.628906 39.257812 166.277344 36.988281 163.277344 35.648438 C 159.375 34.332031 154.355469 33.949219 150.492188 35.621094 C 149.964844 35.914062 149.445312 36.222656 148.9375 36.550781 C 148.238281 36.984375 147.535156 37.414062 146.828125 37.828125 C 146.546875 37.683594 146.265625 37.542969 145.980469 37.398438 C 146.601562 36.921875 147.222656 36.453125 147.855469 35.992188 C 148.203125 35.734375 148.550781 35.472656 148.910156 35.199219 C 151.855469 33.4375 154.757812 32.898438 158.152344 32.910156 Z M 158.152344 32.910156 "/>
<path style=" stroke:none;fill-rule:nonzero;fill:rgb(94.509804%,92.54902%,87.058824%);fill-opacity:1;" d="M 107.953125 34.851562 C 108.09375 35.269531 108.234375 35.691406 108.375 36.125 C 120.511719 36.125 132.640625 36.125 145.136719 36.125 C 143.871094 37.828125 143.871094 37.828125 142.476562 38.027344 C 141.902344 38.03125 141.316406 38.027344 140.734375 38.019531 C 140.417969 38.019531 140.101562 38.019531 139.777344 38.019531 C 138.726562 38.019531 137.675781 38.003906 136.628906 37.992188 C 135.898438 37.988281 135.171875 37.988281 134.441406 37.984375 C 132.527344 37.976562 130.617188 37.960938 128.703125 37.941406 C 126.75 37.921875 124.789062 37.917969 122.835938 37.90625 C 119.003906 37.890625 115.171875 37.863281 111.335938 37.828125 C 111.195312 37.402344 111.058594 36.984375 110.914062 36.550781 C 109.9375 36.550781 108.960938 36.550781 107.953125 36.550781 C 107.953125 35.992188 107.953125 35.425781 107.953125 34.851562 Z M 107.953125 34.851562 "/>
<path style=" stroke:none;fill-rule:nonzero;fill:rgb(77.254902%,62.352941%,23.137255%);fill-opacity:1;" d="M 167.640625 33.757812 C 171.820312 36.765625 175.324219 40.742188 176.398438 45.902344 C 177.078125 52.074219 176.113281 57.277344 172.265625 62.273438 C 168.609375 66.398438 163.894531 68.308594 158.488281 68.976562 C 155.9375 69.070312 153.421875 68.507812 151.050781 67.574219 C 150.910156 67.296875 150.769531 67.011719 150.628906 66.726562 C 151.230469 66.828125 151.230469 66.828125 151.851562 66.925781 C 157.988281 67.804688 163.832031 67.699219 168.925781 63.855469 C 172.25 60.980469 174.765625 57.601562 175.222656 53.089844 C 175.554688 47.472656 174.992188 42.714844 171.332031 38.25 C 167.621094 34.410156 163.5625 32.589844 158.257812 32.167969 C 155.835938 32.261719 153.433594 32.742188 151.050781 33.152344 C 151.472656 32.296875 151.472656 32.296875 152.75 31.828125 C 157.675781 30.542969 163.320312 31.023438 167.640625 33.757812 Z M 167.640625 33.757812 "/>
<path style=" stroke:none;fill-rule:nonzero;fill:rgb(76.470588%,58.823529%,10.588235%);fill-opacity:1;" d="M 158.65625 45.046875 C 163.722656 45.046875 163.722656 45.046875 165.097656 45.738281 C 166.054688 47.039062 166.066406 47.714844 165.835938 49.300781 C 165.246094 50.875 165.246094 50.875 164.148438 51.421875 C 164.675781 52.90625 165.320312 54 166.257812 55.25 C 166.257812 55.527344 166.257812 55.8125 166.257812 56.097656 C 165.140625 55.941406 164.683594 55.804688 163.945312 54.917969 C 163.769531 54.617188 163.59375 54.3125 163.40625 54 C 163.226562 53.699219 163.042969 53.394531 162.859375 53.089844 C 162.457031 52.277344 162.457031 52.277344 162.457031 51.421875 C 161.625 51.421875 160.785156 51.421875 159.921875 51.421875 C 159.921875 52.96875 159.921875 54.511719 159.921875 56.097656 C 159.503906 56.097656 159.085938 56.097656 158.65625 56.097656 C 158.65625 52.453125 158.65625 48.804688 158.65625 45.046875 Z M 158.65625 45.046875 "/>
<path style=" stroke:none;fill-rule:nonzero;fill:rgb(76.470588%,62.352941%,27.058824%);fill-opacity:1;" d="M 39.933594 48.023438 C 40.488281 48.023438 41.050781 48.023438 41.625 48.023438 C 42.324219 50.269531 43.019531 52.511719 43.738281 54.824219 C 44.433594 52.71875 45.128906 50.617188 45.847656 48.449219 C 46.546875 48.3125 47.246094 48.171875 47.964844 48.023438 C 48.246094 48.835938 48.527344 49.652344 48.808594 50.46875 C 48.960938 50.925781 49.117188 51.378906 49.285156 51.84375 C 49.652344 53.125 49.652344 53.125 49.652344 54.824219 C 49.933594 54.824219 50.207031 54.824219 50.5 54.824219 C 50.566406 54.464844 50.566406 54.464844 50.636719 54.089844 C 51.082031 51.921875 51.675781 50.027344 52.609375 48.023438 C 53.167969 48.023438 53.722656 48.023438 54.300781 48.023438 C 54.003906 50.121094 53.1875 51.957031 52.371094 53.894531 C 52.230469 54.226562 52.089844 54.566406 51.949219 54.910156 C 51.609375 55.730469 51.261719 56.554688 50.921875 57.375 C 50.363281 57.375 49.804688 57.375 49.230469 57.375 C 48.53125 55.414062 47.835938 53.445312 47.121094 51.421875 C 46.296875 52.660156 45.863281 53.722656 45.375 55.117188 C 45.226562 55.539062 45.074219 55.960938 44.917969 56.398438 C 44.753906 56.878906 44.753906 56.878906 44.582031 57.375 C 44.027344 57.375 43.46875 57.375 42.890625 57.375 C 42.785156 57.078125 42.679688 56.78125 42.570312 56.472656 C 42.421875 56.070312 42.277344 55.664062 42.128906 55.25 C 41.972656 54.824219 41.820312 54.398438 41.660156 53.960938 C 41.273438 52.894531 40.871094 51.84375 40.464844 50.789062 C 39.933594 49.300781 39.933594 49.300781 39.933594 48.023438 Z M 39.933594 48.023438 "/>
<path style=" stroke:none;fill-rule:nonzero;fill:rgb(72.941176%,56.470588%,15.686275%);fill-opacity:1;" d="M 36.128906 48.023438 C 37.191406 48.632812 37.191406 48.632812 37.824219 49.722656 C 37.957031 51.035156 37.898438 52.226562 37.824219 53.550781 C 35.871094 53.550781 33.921875 53.550781 31.90625 53.550781 C 32.871094 55.722656 32.871094 55.722656 34.222656 55.976562 C 34.597656 55.988281 34.976562 56.003906 35.367188 56.019531 C 35.75 56.039062 36.125 56.058594 36.523438 56.082031 C 36.808594 56.089844 37.101562 56.09375 37.402344 56.097656 C 37.261719 56.523438 37.121094 56.941406 36.980469 57.375 C 32.699219 57.640625 32.699219 57.640625 31.21875 56.578125 C 29.96875 54.632812 29.949219 52.855469 30.21875 50.578125 C 31.730469 48.089844 33.308594 47.640625 36.128906 48.023438 Z M 36.128906 48.023438 "/>
<path style=" stroke:none;fill-rule:nonzero;fill:rgb(88.627451%,72.54902%,18.431373%);fill-opacity:1;" d="M 168.539062 35.242188 C 172.316406 38.269531 174.5 41.605469 175.554688 46.324219 C 175.90625 52.210938 175.535156 56.871094 171.753906 61.625 C 171.472656 61.484375 171.195312 61.34375 170.910156 61.199219 C 171.515625 59.589844 172.242188 58.0625 173.019531 56.523438 C 173.300781 56.523438 173.578125 56.523438 173.863281 56.523438 C 175.335938 50.988281 175.082031 46.101562 172.226562 41.09375 C 169.949219 37.507812 166.546875 34.824219 162.457031 33.574219 C 157.136719 33.015625 152.195312 33.332031 147.644531 36.339844 C 146.519531 37.296875 146.097656 37.785156 145.558594 39.101562 C 145.140625 39.378906 144.722656 39.664062 144.292969 39.949219 C 144.011719 39.667969 143.734375 39.390625 143.449219 39.101562 C 145.542969 36.863281 147.445312 34.9375 150.207031 33.574219 C 150.066406 33.292969 149.925781 33.015625 149.78125 32.726562 C 150.058594 32.695312 150.332031 32.671875 150.621094 32.648438 C 152.980469 32.417969 152.980469 32.417969 155.332031 32.0625 C 160.136719 31.324219 164.542969 32.476562 168.539062 35.242188 Z M 168.539062 35.242188 "/>
<path style=" stroke:none;fill-rule:nonzero;fill:rgb(77.254902%,60%,10.588235%);fill-opacity:1;" d="M 148.515625 45.046875 C 153.585938 45.046875 153.585938 45.046875 154.957031 45.714844 C 155.984375 47.152344 155.972656 47.992188 155.695312 49.722656 C 155.113281 50.761719 155.113281 50.761719 154.007812 51.421875 C 152.566406 51.566406 151.238281 51.503906 149.78125 51.421875 C 149.78125 52.96875 149.78125 54.511719 149.78125 56.097656 C 149.363281 56.097656 148.945312 56.097656 148.515625 56.097656 C 148.515625 52.453125 148.515625 48.804688 148.515625 45.046875 Z M 148.515625 45.046875 "/>
<path style=" stroke:none;fill-rule:nonzero;fill:rgb(75.294118%,60.392157%,22.745098%);fill-opacity:1;" d="M 56.832031 48.023438 C 57.570312 47.980469 58.3125 47.945312 59.050781 47.917969 C 59.464844 47.898438 59.875 47.878906 60.296875 47.859375 C 61.484375 48.023438 61.484375 48.023438 62.472656 48.632812 C 63.523438 50.273438 63.355469 51.75 63.277344 53.65625 C 63.269531 54.011719 63.261719 54.367188 63.257812 54.738281 C 63.234375 55.621094 63.207031 56.496094 63.171875 57.375 C 62.210938 57.410156 61.253906 57.433594 60.292969 57.457031 C 59.496094 57.476562 59.496094 57.476562 58.675781 57.5 C 57.253906 57.375 57.253906 57.375 56.445312 56.808594 C 55.722656 55.683594 55.796875 54.851562 55.988281 53.550781 C 56.597656 52.753906 56.597656 52.753906 57.679688 52.277344 C 58.953125 52.175781 60.207031 52.199219 61.484375 52.277344 C 61.203125 51.433594 60.925781 50.589844 60.632812 49.722656 C 59.382812 49.722656 58.128906 49.722656 56.832031 49.722656 C 56.832031 49.164062 56.832031 48.605469 56.832031 48.023438 Z M 56.832031 48.023438 "/>
<path style=" stroke:none;fill-rule:nonzero;fill:rgb(81.176471%,68.627451%,36.862745%);fill-opacity:1;" d="M 143.871094 61.199219 C 144.480469 61.753906 144.480469 61.753906 145.109375 62.316406 C 146.601562 63.613281 148.1875 64.6875 149.859375 65.746094 C 150.628906 66.300781 150.628906 66.300781 151.050781 67.148438 C 152.117188 67.425781 152.117188 67.425781 153.160156 67.574219 C 153.160156 67.714844 153.160156 67.855469 153.160156 68 C 147.917969 68.066406 142.675781 68.121094 137.429688 68.152344 C 134.996094 68.167969 132.558594 68.1875 130.125 68.222656 C 127.773438 68.257812 125.421875 68.273438 123.070312 68.285156 C 122.179688 68.289062 121.277344 68.300781 120.386719 68.3125 C 119.125 68.335938 117.867188 68.339844 116.613281 68.339844 C 116.246094 68.351562 115.875 68.359375 115.492188 68.371094 C 113.976562 68.351562 112.996094 68.320312 111.792969 67.347656 C 110.070312 65.394531 110.070312 65.394531 110.070312 64.171875 C 110.34375 64.171875 110.625 64.171875 110.914062 64.171875 C 111.140625 64.59375 111.359375 65.003906 111.589844 65.429688 C 112.5 66.886719 112.5 66.886719 114.1875 67.035156 C 114.835938 67.039062 115.484375 67.035156 116.132812 67.011719 C 116.488281 67.011719 116.839844 67.011719 117.207031 67.011719 C 118.375 67.011719 119.546875 66.992188 120.714844 66.972656 C 121.53125 66.96875 122.339844 66.96875 123.152344 66.960938 C 125.292969 66.953125 127.425781 66.925781 129.5625 66.902344 C 131.746094 66.871094 133.925781 66.863281 136.105469 66.851562 C 140.382812 66.820312 144.65625 66.78125 148.9375 66.726562 C 148.5 66.386719 148.5 66.386719 148.058594 66.039062 C 147.675781 65.742188 147.292969 65.441406 146.902344 65.132812 C 146.527344 64.835938 146.148438 64.542969 145.761719 64.234375 C 144.824219 63.417969 144.140625 62.65625 143.449219 61.625 C 143.582031 61.484375 143.722656 61.34375 143.871094 61.199219 Z M 143.871094 61.199219 "/>
<path style=" stroke:none;fill-rule:nonzero;fill:rgb(76.078431%,60%,18.039216%);fill-opacity:1;" d="M 101.617188 41.648438 C 114.867188 41.648438 128.109375 41.648438 141.753906 41.648438 C 141.480469 42.210938 141.199219 42.773438 140.910156 43.347656 C 140.910156 43.070312 140.910156 42.789062 140.910156 42.5 C 127.804688 42.5 114.699219 42.5 101.195312 42.5 C 101.335938 42.21875 101.476562 41.9375 101.617188 41.648438 Z M 101.617188 41.648438 "/>
<path style=" stroke:none;fill-rule:nonzero;fill:rgb(74.901961%,59.607843%,21.568627%);fill-opacity:1;" d="M 88.839844 47.945312 C 89.257812 47.957031 89.667969 47.96875 90.101562 47.980469 C 90.417969 47.992188 90.734375 48.007812 91.054688 48.023438 C 91.054688 48.449219 91.054688 48.867188 91.054688 49.300781 C 89.664062 49.441406 88.265625 49.582031 86.832031 49.722656 C 86.832031 50.285156 86.832031 50.847656 86.832031 51.421875 C 87.097656 51.507812 87.359375 51.589844 87.632812 51.675781 C 87.980469 51.785156 88.324219 51.898438 88.679688 52.007812 C 89.019531 52.121094 89.367188 52.226562 89.71875 52.335938 C 90.632812 52.699219 90.632812 52.699219 91.476562 53.550781 C 91.636719 54.796875 91.636719 54.796875 91.476562 56.097656 C 90.539062 57.050781 89.96875 57.355469 88.640625 57.515625 C 88.230469 57.5 87.832031 57.492188 87.414062 57.480469 C 87.007812 57.476562 86.601562 57.464844 86.183594 57.460938 C 85.144531 57.375 85.144531 57.375 84.292969 56.953125 C 84.503906 56.320312 84.503906 56.320312 84.714844 55.675781 C 86.253906 55.675781 87.785156 55.675781 89.367188 55.675781 C 89.367188 55.257812 89.367188 54.832031 89.367188 54.398438 C 89.066406 54.253906 88.765625 54.101562 88.457031 53.949219 C 88.066406 53.757812 87.679688 53.5625 87.277344 53.367188 C 86.890625 53.171875 86.503906 52.976562 86.109375 52.78125 C 85.144531 52.277344 85.144531 52.277344 84.714844 51.851562 C 84.585938 50.625 84.585938 50.625 84.714844 49.300781 C 86.023438 47.96875 87.027344 47.878906 88.839844 47.945312 Z M 88.839844 47.945312 "/>
<path style=" stroke:none;fill-rule:nonzero;fill:rgb(98.431373%,98.039216%,96.470588%);fill-opacity:1;" d="M 79.648438 49.300781 C 79.660156 50.355469 79.667969 51.410156 79.675781 52.460938 C 79.679688 52.761719 79.683594 53.0625 79.683594 53.371094 C 79.6875 54.136719 79.667969 54.910156 79.648438 55.675781 C 79.226562 56.097656 79.226562 56.097656 77.800781 56.234375 C 76.269531 56.097656 76.269531 56.097656 75.449219 55.488281 C 74.792969 53.890625 74.683594 52.277344 75.003906 50.578125 C 76.265625 48.800781 77.648438 49.199219 79.648438 49.300781 Z M 79.648438 49.300781 "/>
<path style=" stroke:none;fill-rule:nonzero;fill:rgb(98.039216%,97.254902%,94.901961%);fill-opacity:1;" d="M 7.402344 45.476562 C 10.859375 45.320312 10.859375 45.320312 12.289062 45.953125 C 12.898438 46.75 12.898438 46.75 13.132812 48.023438 C 12.898438 49.300781 12.898438 49.300781 12.046875 50.097656 C 10.394531 50.71875 9.160156 50.667969 7.402344 50.578125 C 7.402344 48.890625 7.402344 47.207031 7.402344 45.476562 Z M 7.402344 45.476562 "/>
<path style=" stroke:none;fill-rule:nonzero;fill:rgb(98.431373%,98.039216%,96.078431%);fill-opacity:1;" d="M 20.078125 45.476562 C 23.71875 45.367188 23.71875 45.367188 25.148438 46.324219 C 25.332031 47.789062 25.332031 47.789062 25.148438 49.300781 C 24.515625 50.121094 24.515625 50.121094 23.460938 50.578125 C 22.308594 50.671875 21.234375 50.632812 20.078125 50.578125 C 20.078125 48.890625 20.078125 47.207031 20.078125 45.476562 Z M 20.078125 45.476562 "/>
<path style=" stroke:none;fill-rule:nonzero;fill:rgb(74.901961%,59.607843%,21.960784%);fill-opacity:1;" d="M 56.832031 48.023438 C 57.570312 47.980469 58.3125 47.945312 59.050781 47.917969 C 59.464844 47.898438 59.875 47.878906 60.296875 47.859375 C 61.484375 48.023438 61.484375 48.023438 62.472656 48.632812 C 63.523438 50.273438 63.355469 51.75 63.277344 53.65625 C 63.269531 54.011719 63.261719 54.367188 63.257812 54.738281 C 63.234375 55.621094 63.207031 56.496094 63.171875 57.375 C 62.753906 57.375 62.335938 57.375 61.90625 57.375 C 61.90625 57.09375 61.90625 56.816406 61.90625 56.523438 C 61.625 56.386719 61.347656 56.246094 61.0625 56.097656 C 61.195312 55.121094 61.335938 54.136719 61.484375 53.125 C 60.503906 53.125 59.53125 53.125 58.523438 53.125 C 58.523438 52.988281 58.523438 52.847656 58.523438 52.699219 C 59.5 52.699219 60.472656 52.699219 61.484375 52.699219 C 61.203125 51.714844 60.925781 50.738281 60.632812 49.722656 C 59.382812 49.722656 58.128906 49.722656 56.832031 49.722656 C 56.832031 49.164062 56.832031 48.605469 56.832031 48.023438 Z M 56.832031 48.023438 "/>
<path style=" stroke:none;fill-rule:nonzero;fill:rgb(75.686275%,61.176471%,24.313725%);fill-opacity:1;" d="M 66.128906 48.023438 C 68.082031 48.023438 70.03125 48.023438 72.046875 48.023438 C 72.046875 48.449219 72.046875 48.867188 72.046875 49.300781 C 70.648438 49.441406 69.257812 49.582031 67.820312 49.722656 C 67.820312 52.25 67.820312 54.773438 67.820312 57.375 C 67.265625 57.375 66.703125 57.375 66.128906 57.375 C 66.128906 54.289062 66.128906 51.203125 66.128906 48.023438 Z M 66.128906 48.023438 "/>
<path style=" stroke:none;fill-rule:nonzero;fill:rgb(72.941176%,56.470588%,15.294118%);fill-opacity:1;" d="M 80.070312 43.347656 C 80.488281 43.347656 80.910156 43.347656 81.335938 43.347656 C 81.335938 47.980469 81.335938 52.609375 81.335938 57.375 C 81.058594 57.375 80.777344 57.375 80.492188 57.375 C 80.492188 57.09375 80.492188 56.816406 80.492188 56.523438 C 80.214844 56.386719 79.933594 56.246094 79.648438 56.097656 C 79.648438 53.996094 79.648438 51.894531 79.648438 49.722656 C 78.675781 49.445312 77.695312 49.164062 76.691406 48.875 C 77.429688 48.421875 77.429688 48.421875 78.382812 48.023438 C 78.941406 48.164062 79.5 48.308594 80.070312 48.449219 C 80.070312 46.769531 80.070312 45.082031 80.070312 43.347656 Z M 80.070312 43.347656 "/>
<path style=" stroke:none;fill-rule:nonzero;fill:rgb(92.156863%,74.117647%,9.019608%);fill-opacity:1;" d="M 149.78125 46.324219 C 152.882812 46.171875 152.882812 46.171875 154.035156 46.804688 C 154.636719 48.019531 154.367188 48.871094 154.007812 50.148438 C 152.648438 50.832031 151.289062 50.601562 149.78125 50.578125 C 149.78125 49.175781 149.78125 47.773438 149.78125 46.324219 Z M 149.78125 46.324219 "/>
<path style=" stroke:none;fill-rule:nonzero;fill:rgb(91.764706%,73.72549%,9.019608%);fill-opacity:1;" d="M 159.921875 46.324219 C 163.042969 46.167969 163.042969 46.167969 164.148438 46.828125 C 164.722656 47.878906 164.746094 48.550781 164.570312 49.722656 C 163.265625 50.601562 163.003906 50.675781 161.53125 50.625 C 160.734375 50.601562 160.734375 50.601562 159.921875 50.578125 C 159.921875 49.175781 159.921875 47.773438 159.921875 46.324219 Z M 159.921875 46.324219 "/>
<path style=" stroke:none;fill-rule:nonzero;fill:rgb(74.901961%,60%,21.960784%);fill-opacity:1;" d="M 37.402344 49.722656 C 37.535156 49.722656 37.675781 49.722656 37.824219 49.722656 C 37.824219 50.984375 37.824219 52.25 37.824219 53.550781 C 35.871094 53.550781 33.921875 53.550781 31.90625 53.550781 C 32.871094 55.722656 32.871094 55.722656 34.222656 55.976562 C 34.597656 55.988281 34.976562 56.003906 35.367188 56.019531 C 35.75 56.039062 36.125 56.058594 36.523438 56.082031 C 36.808594 56.089844 37.101562 56.09375 37.402344 56.097656 C 37.261719 56.523438 37.121094 56.941406 36.980469 57.375 C 32.699219 57.640625 32.699219 57.640625 31.21875 56.578125 C 30.292969 55.140625 30.167969 54.355469 30.1875 52.648438 C 30.195312 52.261719 30.199219 51.871094 30.203125 51.472656 C 30.210938 51.175781 30.214844 50.878906 30.21875 50.578125 C 30.355469 50.578125 30.496094 50.578125 30.640625 50.578125 C 30.777344 51.554688 30.917969 52.539062 31.0625 53.550781 C 31.203125 53.410156 31.339844 53.269531 31.484375 53.125 C 32.480469 53.09375 33.472656 53.089844 34.46875 53.097656 C 35.015625 53.101562 35.558594 53.109375 36.121094 53.109375 C 36.542969 53.113281 36.964844 53.117188 37.402344 53.125 C 37.402344 52.003906 37.402344 50.878906 37.402344 49.722656 Z M 37.402344 49.722656 "/>
<path style=" stroke:none;fill-rule:nonzero;fill:rgb(72.156863%,54.901961%,10.980392%);fill-opacity:1;" d="M 159.078125 45.476562 C 160.472656 45.476562 161.863281 45.476562 163.300781 45.476562 C 163.300781 45.894531 163.300781 46.316406 163.300781 46.75 C 162.1875 46.613281 161.070312 46.472656 159.921875 46.324219 C 159.921875 47.726562 159.921875 49.128906 159.921875 50.578125 C 161.035156 50.578125 162.15625 50.578125 163.300781 50.578125 C 163.300781 51.136719 163.300781 51.695312 163.300781 52.277344 C 163.023438 52.277344 162.742188 52.277344 162.457031 52.277344 C 162.457031 51.992188 162.457031 51.714844 162.457031 51.421875 C 161.625 51.421875 160.785156 51.421875 159.921875 51.421875 C 159.921875 52.96875 159.921875 54.511719 159.921875 56.097656 C 159.644531 56.097656 159.363281 56.097656 159.078125 56.097656 C 159.078125 52.59375 159.078125 49.089844 159.078125 45.476562 Z M 159.078125 45.476562 "/>
<path style=" stroke:none;fill-rule:nonzero;fill:rgb(72.156863%,54.901961%,10.980392%);fill-opacity:1;" d="M 148.9375 45.476562 C 150.332031 45.476562 151.722656 45.476562 153.160156 45.476562 C 153.160156 45.894531 153.160156 46.316406 153.160156 46.75 C 152.046875 46.613281 150.929688 46.472656 149.78125 46.324219 C 149.78125 47.726562 149.78125 49.128906 149.78125 50.578125 C 150.894531 50.578125 152.015625 50.578125 153.160156 50.578125 C 153.160156 50.855469 153.160156 51.136719 153.160156 51.421875 C 152.046875 51.421875 150.929688 51.421875 149.78125 51.421875 C 149.78125 52.96875 149.78125 54.511719 149.78125 56.097656 C 149.503906 56.097656 149.222656 56.097656 148.9375 56.097656 C 148.9375 52.59375 148.9375 49.089844 148.9375 45.476562 Z M 148.9375 45.476562 "/>
<path style=" stroke:none;fill-rule:nonzero;fill:rgb(98.431373%,97.254902%,94.901961%);fill-opacity:1;" d="M 34.230469 49.195312 C 35.285156 49.300781 35.285156 49.300781 36.128906 50.148438 C 36.128906 50.855469 36.128906 51.554688 36.128906 52.277344 C 34.738281 52.277344 33.34375 52.277344 31.90625 52.277344 C 32.363281 49.382812 32.363281 49.382812 34.230469 49.195312 Z M 34.230469 49.195312 "/>
<path style=" stroke:none;fill-rule:nonzero;fill:rgb(77.647059%,62.352941%,21.176471%);fill-opacity:1;" d="M 149.835938 33.328125 C 150.097656 33.410156 150.359375 33.492188 150.628906 33.574219 C 150.363281 33.746094 150.097656 33.917969 149.820312 34.089844 C 146.515625 36.296875 144.101562 38.875 141.753906 42.074219 C 141.613281 41.65625 141.480469 41.234375 141.332031 40.800781 C 141.878906 39.882812 142.429688 39.085938 143.074219 38.25 C 143.40625 37.800781 143.738281 37.355469 144.082031 36.894531 C 145.089844 35.753906 145.921875 35.132812 147.25 34.425781 C 147.535156 34.179688 147.820312 33.933594 148.117188 33.679688 C 148.9375 33.152344 148.9375 33.152344 149.835938 33.328125 Z M 149.835938 33.328125 "/>
<path style=" stroke:none;fill-rule:nonzero;fill:rgb(98.823529%,98.039216%,96.862745%);fill-opacity:1;" d="M 61.484375 53.125 C 61.484375 53.964844 61.484375 54.808594 61.484375 55.675781 C 60.339844 56.25 59.363281 56.128906 58.101562 56.097656 C 57.960938 55.398438 57.820312 54.695312 57.679688 53.976562 C 59.003906 53.183594 59.953125 53.039062 61.484375 53.125 Z M 61.484375 53.125 "/>
<path style=" stroke:none;fill-rule:nonzero;fill:rgb(74.901961%,58.823529%,16.470588%);fill-opacity:1;" d="M 155.695312 33.574219 C 156.398438 33.722656 157.101562 33.863281 157.8125 34 C 157.8125 34.140625 157.8125 34.28125 157.8125 34.425781 C 157.488281 34.4375 157.167969 34.445312 156.835938 34.457031 C 153.265625 34.652344 150.71875 35.441406 147.695312 37.320312 C 147.410156 37.488281 147.125 37.65625 146.828125 37.828125 C 146.546875 37.683594 146.265625 37.542969 145.980469 37.398438 C 152.34375 32.519531 152.34375 32.519531 155.695312 33.574219 Z M 155.695312 33.574219 "/>
<path style=" stroke:none;fill-rule:nonzero;fill:rgb(99.607843%,99.607843%,99.607843%);fill-opacity:1;" d="M 121.476562 36.550781 C 123.84375 36.550781 126.214844 36.550781 128.65625 36.550781 C 128.65625 36.96875 128.65625 37.394531 128.65625 37.828125 C 126.152344 37.828125 123.640625 37.828125 121.054688 37.828125 C 121.195312 37.402344 121.335938 36.984375 121.476562 36.550781 Z M 121.476562 36.550781 "/>
<path style=" stroke:none;fill-rule:nonzero;fill:rgb(99.607843%,99.607843%,99.607843%);fill-opacity:1;" d="M 129.925781 36.550781 C 132.296875 36.550781 134.664062 36.550781 137.109375 36.550781 C 137.109375 36.96875 137.109375 37.394531 137.109375 37.828125 C 134.738281 37.828125 132.367188 37.828125 129.925781 37.828125 C 129.925781 37.402344 129.925781 36.984375 129.925781 36.550781 Z M 129.925781 36.550781 "/>
<path style=" stroke:none;fill-rule:nonzero;fill:rgb(99.607843%,99.607843%,99.607843%);fill-opacity:1;" d="M 112.605469 36.550781 C 114.976562 36.550781 117.339844 36.550781 119.789062 36.550781 C 119.789062 36.96875 119.789062 37.394531 119.789062 37.828125 C 117.417969 37.828125 115.046875 37.828125 112.605469 37.828125 C 112.605469 37.402344 112.605469 36.984375 112.605469 36.550781 Z M 112.605469 36.550781 "/>
<path style=" stroke:none;fill-rule:nonzero;fill:rgb(78.431373%,65.098039%,32.54902%);fill-opacity:1;" d="M 34.523438 47.972656 C 35.316406 48 35.316406 48 36.128906 48.023438 C 36.128906 48.164062 36.128906 48.308594 36.128906 48.449219 C 35.738281 48.484375 35.347656 48.519531 34.945312 48.554688 C 33.585938 48.75 33.585938 48.75 32.832031 49.644531 C 32.234375 50.660156 32.234375 50.660156 31.90625 52.277344 C 33.304688 52.277344 34.695312 52.277344 36.128906 52.277344 C 36.269531 51.714844 36.410156 51.152344 36.550781 50.578125 C 36.550781 51.277344 36.550781 51.976562 36.550781 52.699219 C 34.878906 52.699219 33.207031 52.699219 31.484375 52.699219 C 31.484375 52 31.484375 51.296875 31.484375 50.578125 C 31.203125 50.578125 30.925781 50.578125 30.640625 50.578125 C 31.476562 48.632812 32.402344 47.902344 34.523438 47.972656 Z M 34.523438 47.972656 "/>
<path style=" stroke:none;fill-rule:nonzero;fill:rgb(77.647059%,63.921569%,30.196078%);fill-opacity:1;" d="M 52.609375 48.023438 C 53.167969 48.023438 53.722656 48.023438 54.300781 48.023438 C 54.019531 49.890625 53.378906 51.417969 52.609375 53.125 C 52.191406 53.125 51.773438 53.125 51.34375 53.125 C 50.921875 52.277344 50.921875 52.277344 51.246094 51.261719 C 51.410156 50.878906 51.570312 50.492188 51.738281 50.097656 C 51.902344 49.707031 52.0625 49.324219 52.226562 48.925781 C 52.351562 48.628906 52.476562 48.332031 52.609375 48.023438 Z M 52.609375 48.023438 "/>
<path style=" stroke:none;fill-rule:nonzero;fill:rgb(77.647059%,63.921569%,29.803922%);fill-opacity:1;" d="M 76.664062 48.15625 C 77.535156 48.449219 77.535156 48.449219 78.804688 49.300781 C 78.351562 49.421875 77.894531 49.546875 77.429688 49.671875 C 75.703125 50.15625 75.703125 50.15625 74.15625 51 C 73.859375 52.027344 73.859375 52.027344 73.839844 53.179688 C 73.816406 53.566406 73.792969 53.949219 73.769531 54.347656 C 73.753906 54.796875 73.753906 54.796875 73.734375 55.25 C 73.597656 55.25 73.457031 55.25 73.3125 55.25 C 73.042969 51.019531 73.042969 51.019531 74.105469 49.246094 C 75.535156 47.972656 75.535156 47.972656 76.664062 48.15625 Z M 76.664062 48.15625 "/>
<path style=" stroke:none;fill-rule:nonzero;fill:rgb(77.647059%,62.352941%,22.745098%);fill-opacity:1;" d="M 143.871094 61.199219 C 144.277344 61.566406 144.6875 61.933594 145.109375 62.316406 C 146.84375 63.816406 148.707031 65.0625 150.628906 66.300781 C 149.917969 66.609375 149.917969 66.609375 148.9375 66.726562 C 147.890625 66.082031 147.890625 66.082031 146.796875 65.15625 C 146.4375 64.859375 146.074219 64.558594 145.703125 64.25 C 144.820312 63.421875 144.125 62.621094 143.449219 61.625 C 143.582031 61.484375 143.722656 61.34375 143.871094 61.199219 Z M 143.871094 61.199219 "/>
<path style=" stroke:none;fill-rule:nonzero;fill:rgb(99.607843%,99.607843%,99.215686%);fill-opacity:1;" d="M 138.796875 36.550781 C 140.609375 36.550781 142.421875 36.550781 144.292969 36.550781 C 144.152344 36.96875 144.011719 37.394531 143.871094 37.828125 C 142.054688 37.828125 140.242188 37.828125 138.375 37.828125 C 138.515625 37.402344 138.65625 36.984375 138.796875 36.550781 Z M 138.796875 36.550781 "/>
<path style=" stroke:none;fill-rule:nonzero;fill:rgb(72.941176%,56.470588%,15.294118%);fill-opacity:1;" d="M 51.765625 52.277344 C 51.90625 52.277344 52.042969 52.277344 52.1875 52.277344 C 51.972656 54.113281 51.679688 55.691406 50.921875 57.375 C 50.363281 57.375 49.804688 57.375 49.230469 57.375 C 49.230469 56.675781 49.230469 55.972656 49.230469 55.25 C 49.644531 55.25 50.066406 55.25 50.5 55.25 C 50.628906 54.839844 50.761719 54.425781 50.890625 54 C 51.34375 52.699219 51.34375 52.699219 51.765625 52.277344 Z M 51.765625 52.277344 "/>
<path style=" stroke:none;fill-rule:nonzero;fill:rgb(76.862745%,62.745098%,27.45098%);fill-opacity:1;" d="M 88.785156 48 C 89.421875 48.003906 89.421875 48.003906 90.070312 48.007812 C 90.398438 48.015625 90.71875 48.019531 91.054688 48.023438 C 91.054688 48.449219 91.054688 48.867188 91.054688 49.300781 C 89.523438 49.441406 87.992188 49.582031 86.410156 49.722656 C 86.410156 49.445312 86.410156 49.164062 86.410156 48.875 C 86.128906 48.734375 85.851562 48.59375 85.566406 48.449219 C 86.679688 47.886719 87.539062 47.984375 88.785156 48 Z M 88.785156 48 "/>
<path style=" stroke:none;fill-rule:nonzero;fill:rgb(83.529412%,67.45098%,18.431373%);fill-opacity:1;" d="M 157.570312 32.484375 C 158.039062 32.519531 158.039062 32.519531 158.507812 32.550781 C 159.261719 32.605469 160.015625 32.667969 160.769531 32.726562 C 160.769531 32.863281 160.769531 33.003906 160.769531 33.152344 C 160.070312 33.1875 160.070312 33.1875 159.363281 33.226562 C 158.75 33.261719 158.132812 33.300781 157.519531 33.335938 C 157.214844 33.351562 156.914062 33.367188 156.597656 33.386719 C 155.300781 33.464844 154.078125 33.558594 152.804688 33.828125 C 151.589844 34.058594 150.875 33.6875 149.78125 33.152344 C 152.402344 32.273438 154.863281 32.269531 157.570312 32.484375 Z M 157.570312 32.484375 "/>
<path style=" stroke:none;fill-rule:nonzero;fill:rgb(91.372549%,85.882353%,72.941176%);fill-opacity:1;" d="M 79.226562 43.347656 C 79.503906 43.347656 79.785156 43.347656 80.070312 43.347656 C 80.070312 45.035156 80.070312 46.71875 80.070312 48.449219 C 78.957031 48.3125 77.839844 48.171875 76.691406 48.023438 C 76.691406 47.882812 76.691406 47.746094 76.691406 47.601562 C 77.53125 47.601562 78.363281 47.601562 79.226562 47.601562 C 79.226562 46.199219 79.226562 44.796875 79.226562 43.347656 Z M 79.226562 43.347656 "/>
<path style=" stroke:none;fill-rule:nonzero;fill:rgb(71.764706%,54.509804%,11.372549%);fill-opacity:1;" d="M 30.640625 50.578125 C 30.917969 50.578125 31.199219 50.578125 31.484375 50.578125 C 31.484375 51.277344 31.484375 51.976562 31.484375 52.699219 C 33.015625 52.699219 34.554688 52.699219 36.128906 52.699219 C 36.128906 52.839844 36.128906 52.980469 36.128906 53.125 C 35.644531 53.160156 35.644531 53.160156 35.144531 53.1875 C 34.71875 53.21875 34.296875 53.25 33.859375 53.285156 C 33.4375 53.316406 33.015625 53.34375 32.585938 53.375 C 31.417969 53.449219 31.417969 53.449219 30.640625 54.398438 C 30.640625 53.136719 30.640625 51.878906 30.640625 50.578125 Z M 30.640625 50.578125 "/>
<path style=" stroke:none;fill-rule:nonzero;fill:rgb(76.078431%,60%,16.862745%);fill-opacity:1;" d="M 149.835938 33.332031 C 150.097656 33.414062 150.359375 33.492188 150.628906 33.574219 C 149.953125 34.085938 149.273438 34.589844 148.59375 35.085938 C 148.21875 35.371094 147.84375 35.652344 147.449219 35.941406 C 147.105469 36.140625 146.757812 36.34375 146.402344 36.550781 C 145.984375 36.410156 145.566406 36.269531 145.136719 36.125 C 145.839844 35.558594 146.542969 34.992188 147.25 34.425781 C 147.535156 34.167969 147.820312 33.917969 148.117188 33.65625 C 148.9375 33.152344 148.9375 33.152344 149.835938 33.332031 Z M 149.835938 33.332031 "/>
<path style=" stroke:none;fill-rule:nonzero;fill:rgb(72.941176%,56.862745%,16.078431%);fill-opacity:1;" d="M 42.46875 54.398438 C 42.75 54.398438 43.027344 54.398438 43.3125 54.398438 C 43.3125 54.824219 43.3125 55.242188 43.3125 55.675781 C 43.734375 55.675781 44.152344 55.675781 44.582031 55.675781 C 44.582031 56.234375 44.582031 56.796875 44.582031 57.375 C 44.027344 57.375 43.46875 57.375 42.890625 57.375 C 42.753906 56.390625 42.613281 55.414062 42.46875 54.398438 Z M 42.46875 54.398438 "/>
<path style=" stroke:none;fill-rule:nonzero;fill:rgb(90.588235%,74.117647%,16.470588%);fill-opacity:1;" d="M 173.441406 57.375 C 173.582031 57.792969 173.722656 58.21875 173.863281 58.652344 C 173.445312 59.425781 173.445312 59.425781 172.832031 60.21875 C 172.636719 60.480469 172.4375 60.742188 172.230469 61.019531 C 172.070312 61.21875 171.914062 61.417969 171.753906 61.625 C 171.472656 61.484375 171.195312 61.34375 170.910156 61.199219 C 171.550781 59.742188 172.425781 58.601562 173.441406 57.375 Z M 173.441406 57.375 "/>
<path style=" stroke:none;fill-rule:nonzero;fill:rgb(90.980392%,87.45098%,78.823529%);fill-opacity:1;" d="M 61.484375 53.125 C 61.484375 53.964844 61.484375 54.808594 61.484375 55.675781 C 61.34375 55.675781 61.203125 55.675781 61.0625 55.675781 C 61.0625 54.972656 61.0625 54.273438 61.0625 53.550781 C 60.78125 53.550781 60.503906 53.550781 60.210938 53.550781 C 60.210938 53.96875 60.210938 54.390625 60.210938 54.824219 C 59.796875 54.824219 59.378906 54.824219 58.945312 54.824219 C 58.945312 54.546875 58.945312 54.261719 58.945312 53.976562 C 58.664062 53.835938 58.390625 53.691406 58.101562 53.550781 C 59.339844 53.132812 60.199219 53.089844 61.484375 53.125 Z M 61.484375 53.125 "/>
<path style=" stroke:none;fill-rule:nonzero;fill:rgb(76.470588%,62.352941%,27.058824%);fill-opacity:1;" d="M 59.660156 52.21875 C 60.171875 52.234375 60.171875 52.234375 60.695312 52.246094 C 61.085938 52.261719 61.085938 52.261719 61.484375 52.277344 C 61.484375 52.417969 61.484375 52.554688 61.484375 52.699219 C 61.011719 52.78125 61.011719 52.78125 60.527344 52.859375 C 59.453125 53.109375 58.640625 53.4375 57.679688 53.976562 C 57.257812 53.691406 56.84375 53.414062 56.410156 53.125 C 57.765625 52.214844 58.109375 52.175781 59.660156 52.21875 Z M 59.660156 52.21875 "/>
</g>
</svg>
